<svg width="31" height="32" viewBox="0 0 31 32" fill="none" xmlns="http://www.w3.org/2000/svg">
<path d="M15.495 31.4948C23.97 31.4948 30.99 24.4899 30.99 15.9999C30.99 7.52488 23.97 0.504883 15.48 0.504883C7.005 0.504883 0 7.52488 0 15.9999C0 24.4899 7.02 31.4948 15.495 31.4948ZM6.465 6.56488C7.965 5.13989 9.78 4.04488 11.805 3.44488C10.74 4.50988 9.84 6.00989 9.165 7.83988C8.115 7.50988 7.21501 7.07489 6.465 6.56488ZM19.2001 3.45989C21.21 4.05989 23.025 5.13989 24.51 6.56488C23.775 7.08988 22.8751 7.50988 21.825 7.85488C21.15 6.00989 20.25 4.50988 19.2001 3.45989ZM16.545 3.93989C17.79 4.53989 18.93 6.15988 19.74 8.36488C18.75 8.54488 17.685 8.64989 16.545 8.69488V3.93989ZM11.25 8.36488C12.075 6.15988 13.2001 4.53989 14.445 3.93989V8.69488C13.305 8.64989 12.24 8.54488 11.25 8.36488ZM2.445 14.9499C2.65501 12.3999 3.61501 10.0449 5.085 8.10988C6 8.78488 7.185 9.36989 8.565 9.80488C8.17501 11.3649 7.92 13.1048 7.845 14.9499H2.445ZM23.145 14.9499C23.07 13.1048 22.815 11.3649 22.425 9.80488C23.805 9.36989 24.99 8.79988 25.89 8.10988C27.375 10.0449 28.335 12.3999 28.545 14.9499H23.145ZM9.99 14.9499C10.065 13.3149 10.29 11.7549 10.635 10.3449C11.835 10.5849 13.1099 10.7349 14.445 10.7949V14.9499H9.99ZM16.545 14.9499V10.7949C17.88 10.7349 19.155 10.5849 20.355 10.3449C20.7 11.7549 20.925 13.3149 21 14.9499H16.545ZM2.445 17.0499H7.845C7.92 18.9249 8.17501 20.6799 8.565 22.2549C7.2 22.6898 6.03 23.2598 5.13 23.9349C3.63 21.9848 2.65501 19.6149 2.445 17.0499ZM9.99 17.0499H14.445V21.2799C13.125 21.3398 11.835 21.4899 10.65 21.7149C10.29 20.2899 10.05 18.6998 9.99 17.0499ZM16.545 21.2799V17.0499H21C20.94 18.6998 20.7 20.2899 20.34 21.7149C19.155 21.4899 17.88 21.3398 16.545 21.2799ZM22.425 22.2549C22.83 20.6799 23.07 18.9249 23.145 17.0499H28.545C28.335 19.6149 27.3601 21.9848 25.86 23.9349C24.9601 23.2598 23.79 22.6898 22.425 22.2549ZM16.545 23.3799C17.6699 23.4248 18.735 23.5299 19.71 23.7099C18.9 25.8699 17.775 27.4749 16.545 28.0598V23.3799ZM11.28 23.7099C12.255 23.5299 13.32 23.4248 14.445 23.3799V28.0598C13.215 27.4749 12.09 25.8699 11.28 23.7099ZM6.50999 25.4799C7.245 24.9699 8.145 24.5499 9.18 24.2198C9.85501 26.0199 10.74 27.4898 11.775 28.5398C9.795 27.9399 7.995 26.8749 6.50999 25.4799ZM21.81 24.2198C22.845 24.5499 23.745 24.9699 24.4801 25.4799C22.995 26.8749 21.1949 27.9399 19.215 28.5398C20.25 27.4898 21.135 26.0199 21.81 24.2198Z" fill="white"/>
</svg>
